<svg xmlns="http://www.w3.org/2000/svg" width="232.574" height="241.771" viewBox="0 0 232.574 241.771">
  <g id="Group_81" data-name="Group 81" transform="translate(137.981 -17.357) rotate(60)">
    <circle id="Ellipse_128" data-name="Ellipse 128" cx="2.366" cy="2.366" r="2.366" transform="matrix(-0.438, 0.899, -0.899, -0.438, 181.43, 141.413)" fill="#e96390"/>
    <circle id="Ellipse_129" data-name="Ellipse 129" cx="2.416" cy="2.416" r="2.416" transform="translate(198.622 70.224) rotate(135)" fill="#9984d4"/>
    <ellipse id="Ellipse_130" data-name="Ellipse 130" cx="2.472" cy="2.472" rx="2.472" ry="2.472" transform="translate(185.585 5.992) rotate(-104)" fill="#9984d4"/>
    <ellipse id="Ellipse_131" data-name="Ellipse 131" cx="2.278" cy="2.278" rx="2.278" ry="2.278" transform="matrix(-0.407, -0.914, 0.914, -0.407, 126.285, 78.292)" fill="#ffc857"/>
    <circle id="Ellipse_132" data-name="Ellipse 132" cx="2.375" cy="2.375" r="2.375" transform="matrix(-0.588, 0.809, -0.809, -0.588, 49.258, 168.158)" fill="#e96390"/>
    <ellipse id="Ellipse_133" data-name="Ellipse 133" cx="2.765" cy="2.765" rx="2.765" ry="2.765" transform="translate(49.094 106.103) rotate(-81)" fill="#ff9747"/>
    <ellipse id="Ellipse_134" data-name="Ellipse 134" cx="2.514" cy="2.514" rx="2.514" ry="2.514" transform="translate(90.787 70.233) rotate(-172)" fill="#e96390"/>
    <ellipse id="Ellipse_135" data-name="Ellipse 135" cx="2.761" cy="2.761" rx="2.761" ry="2.761" transform="matrix(-0.966, -0.259, 0.259, -0.966, 17.143, 49.506)" fill="#ffc857"/>
    <ellipse id="Ellipse_136" data-name="Ellipse 136" cx="2.281" cy="2.281" rx="2.281" ry="2.281" transform="translate(23.128 7.056) rotate(149)" fill="#e96390"/>
    <rect id="Rectangle_154" data-name="Rectangle 154" width="3.185" height="9.156" transform="translate(201.056 170.018) rotate(163)" fill="#ff9747"/>
    <rect id="Rectangle_155" data-name="Rectangle 155" width="3.753" height="10.791" transform="matrix(-0.788, 0.616, -0.616, -0.788, 218, 131.912)" fill="#e96390"/>
    <rect id="Rectangle_156" data-name="Rectangle 156" width="3.807" height="10.944" transform="translate(206.345 91.77) rotate(-17)" fill="#e96390"/>
    <rect id="Rectangle_157" data-name="Rectangle 157" width="3.957" height="11.377" transform="translate(159.151 107.073) rotate(-120)" fill="#ffc857"/>
    <rect id="Rectangle_158" data-name="Rectangle 158" width="3.409" height="9.801" transform="translate(118.836 140.31) rotate(-120)" fill="#ffc857"/>
    <rect id="Rectangle_159" data-name="Rectangle 159" width="3.317" height="9.536" transform="translate(134.83 129.979) rotate(173)" fill="#ffb7b7"/>
    <rect id="Rectangle_160" data-name="Rectangle 160" width="3.88" height="11.154" transform="matrix(-0.035, -0.999, 0.999, -0.035, 65.391, 153.941)" fill="#ff9747"/>
    <rect id="Rectangle_161" data-name="Rectangle 161" width="3.077" height="8.846" transform="matrix(-0.017, 1, -1, -0.017, 80.193, 37.201)" fill="#ffc857"/>
    <rect id="Rectangle_162" data-name="Rectangle 162" width="3.043" height="8.75" transform="matrix(-0.788, 0.616, -0.616, -0.788, 7.785, 160.563)" fill="#e96390"/>
    <rect id="Rectangle_163" data-name="Rectangle 163" width="3.196" height="9.189" transform="matrix(-0.174, -0.985, 0.985, -0.174, 17.26, 132.787)" fill="#ffc857"/>
    <rect id="Rectangle_164" data-name="Rectangle 164" width="3.058" height="8.791" transform="matrix(0.788, -0.616, 0.616, 0.788, 26.737, 87.7)" fill="#ff9747"/>
  </g>
</svg>
